<mxfile host="app.diagrams.net" modified="2023-10-19T12:31:22.563Z" agent="Mozilla/5.0 (X11; Linux x86_64) AppleWebKit/537.36 (KHTML, like Gecko) Chrome/118.0.0.0 Safari/537.36" etag="6rcp-kJwLIWfVvMqjlZL" version="22.0.5" type="device">
  <diagram name="Page-1" id="c4acf3e9-155e-7222-9cf6-157b1a14988f">
    <mxGraphModel dx="3013" dy="614" grid="1" gridSize="10" guides="1" tooltips="1" connect="1" arrows="1" fold="1" page="0" pageScale="1" pageWidth="850" pageHeight="1100" background="none" math="0" shadow="0">
      <root>
        <mxCell id="0" />
        <mxCell id="1" parent="0" />
        <mxCell id="5IcPBQkvsi3HylHIgRuO-8" value="&lt;div style=&quot;&quot;&gt;&lt;span style=&quot;font-size: 7px;&quot;&gt;&lt;b&gt;No ato de devolução o estado do veículo deverá corresponder ao seu estado no ato de entrega. Caso contrário, o cliente deverá arcar com danos.&lt;/b&gt;&lt;/span&gt;&lt;/div&gt;" style="shape=note;whiteSpace=wrap;html=1;backgroundOutline=1;darkOpacity=0.05;size=13;verticalAlign=bottom;labelBackgroundColor=none;labelBorderColor=none;align=left;" parent="1" vertex="1">
          <mxGeometry x="-1207" y="1681" width="100" height="99" as="geometry" />
        </mxCell>
        <mxCell id="utZW5Ri-ObuBG_dfQ21w-149" value="*" style="text;html=1;align=center;verticalAlign=middle;resizable=0;points=[];autosize=1;strokeColor=none;fillColor=none;" parent="1" vertex="1">
          <mxGeometry x="-95" y="118" width="30" height="30" as="geometry" />
        </mxCell>
        <mxCell id="utZW5Ri-ObuBG_dfQ21w-150" value="1" style="text;html=1;align=center;verticalAlign=middle;resizable=0;points=[];autosize=1;strokeColor=none;fillColor=none;" parent="1" vertex="1">
          <mxGeometry x="-175" y="118" width="30" height="30" as="geometry" />
        </mxCell>
        <mxCell id="u8VHcEahrcE8FP3tKRez-27" value="PESSOA" style="swimlane;html=1;fontStyle=0;childLayout=stackLayout;horizontal=1;startSize=26;fillColor=none;horizontalStack=0;resizeParent=1;resizeLast=0;collapsible=1;marginBottom=0;swimlaneFillColor=#ffffff;rounded=0;shadow=0;comic=0;labelBackgroundColor=none;strokeWidth=1;fontFamily=Verdana;fontSize=10;align=center;" parent="1" vertex="1">
          <mxGeometry x="-1022" y="1382" width="110" height="156" as="geometry" />
        </mxCell>
        <mxCell id="u8VHcEahrcE8FP3tKRez-28" value="nome" style="text;html=1;strokeColor=none;fillColor=none;align=left;verticalAlign=top;spacingLeft=4;spacingRight=4;whiteSpace=wrap;overflow=hidden;rotatable=0;points=[[0,0.5],[1,0.5]];portConstraint=eastwest;" parent="u8VHcEahrcE8FP3tKRez-27" vertex="1">
          <mxGeometry y="26" width="110" height="26" as="geometry" />
        </mxCell>
        <mxCell id="u8VHcEahrcE8FP3tKRez-29" value="dataNascimento" style="text;html=1;strokeColor=none;fillColor=none;align=left;verticalAlign=top;spacingLeft=4;spacingRight=4;whiteSpace=wrap;overflow=hidden;rotatable=0;points=[[0,0.5],[1,0.5]];portConstraint=eastwest;" parent="u8VHcEahrcE8FP3tKRez-27" vertex="1">
          <mxGeometry y="52" width="110" height="26" as="geometry" />
        </mxCell>
        <mxCell id="u8VHcEahrcE8FP3tKRez-30" value="morada" style="text;html=1;strokeColor=none;fillColor=none;align=left;verticalAlign=top;spacingLeft=4;spacingRight=4;whiteSpace=wrap;overflow=hidden;rotatable=0;points=[[0,0.5],[1,0.5]];portConstraint=eastwest;" parent="u8VHcEahrcE8FP3tKRez-27" vertex="1">
          <mxGeometry y="78" width="110" height="26" as="geometry" />
        </mxCell>
        <mxCell id="u8VHcEahrcE8FP3tKRez-31" value="telefone" style="text;html=1;strokeColor=none;fillColor=none;align=left;verticalAlign=top;spacingLeft=4;spacingRight=4;whiteSpace=wrap;overflow=hidden;rotatable=0;points=[[0,0.5],[1,0.5]];portConstraint=eastwest;" parent="u8VHcEahrcE8FP3tKRez-27" vertex="1">
          <mxGeometry y="104" width="110" height="26" as="geometry" />
        </mxCell>
        <mxCell id="u8VHcEahrcE8FP3tKRez-32" value="email" style="text;html=1;strokeColor=none;fillColor=none;align=left;verticalAlign=top;spacingLeft=4;spacingRight=4;whiteSpace=wrap;overflow=hidden;rotatable=0;points=[[0,0.5],[1,0.5]];portConstraint=eastwest;" parent="u8VHcEahrcE8FP3tKRez-27" vertex="1">
          <mxGeometry y="130" width="110" height="26" as="geometry" />
        </mxCell>
        <mxCell id="u8VHcEahrcE8FP3tKRez-33" value="CLIENTE" style="swimlane;html=1;fontStyle=0;childLayout=stackLayout;horizontal=1;startSize=26;fillColor=none;horizontalStack=0;resizeParent=1;resizeLast=0;collapsible=1;marginBottom=0;swimlaneFillColor=#ffffff;rounded=0;shadow=0;comic=0;labelBackgroundColor=none;strokeWidth=1;fontFamily=Verdana;fontSize=10;align=center;" parent="1" vertex="1">
          <mxGeometry x="-1022" y="1150" width="110" height="110" as="geometry" />
        </mxCell>
        <mxCell id="u8VHcEahrcE8FP3tKRez-34" value="idCartaConducao" style="text;html=1;strokeColor=none;fillColor=none;align=left;verticalAlign=top;spacingLeft=4;spacingRight=4;whiteSpace=wrap;overflow=hidden;rotatable=0;points=[[0,0.5],[1,0.5]];portConstraint=eastwest;" parent="u8VHcEahrcE8FP3tKRez-33" vertex="1">
          <mxGeometry y="26" width="110" height="26" as="geometry" />
        </mxCell>
        <mxCell id="u8VHcEahrcE8FP3tKRez-35" value="validadeCarta" style="text;html=1;strokeColor=none;fillColor=none;align=left;verticalAlign=top;spacingLeft=4;spacingRight=4;whiteSpace=wrap;overflow=hidden;rotatable=0;points=[[0,0.5],[1,0.5]];portConstraint=eastwest;" parent="u8VHcEahrcE8FP3tKRez-33" vertex="1">
          <mxGeometry y="52" width="110" height="26" as="geometry" />
        </mxCell>
        <mxCell id="u8VHcEahrcE8FP3tKRez-36" value="dataEmissaoCarta" style="text;html=1;strokeColor=none;fillColor=none;align=left;verticalAlign=top;spacingLeft=4;spacingRight=4;whiteSpace=wrap;overflow=hidden;rotatable=0;points=[[0,0.5],[1,0.5]];portConstraint=eastwest;" parent="u8VHcEahrcE8FP3tKRez-33" vertex="1">
          <mxGeometry y="78" width="110" height="26" as="geometry" />
        </mxCell>
        <mxCell id="u8VHcEahrcE8FP3tKRez-38" value="FUNCIONÁRIO" style="swimlane;html=1;fontStyle=0;childLayout=stackLayout;horizontal=1;startSize=26;fillColor=none;horizontalStack=0;resizeParent=1;resizeLast=0;collapsible=1;marginBottom=0;swimlaneFillColor=#ffffff;rounded=0;shadow=0;comic=0;labelBackgroundColor=none;strokeWidth=1;fontFamily=Verdana;fontSize=10;align=center;" parent="1" vertex="1">
          <mxGeometry x="-1022" y="1662" width="110" height="110" as="geometry" />
        </mxCell>
        <mxCell id="u8VHcEahrcE8FP3tKRez-39" value="id&lt;br&gt;" style="text;html=1;strokeColor=none;fillColor=none;align=left;verticalAlign=top;spacingLeft=4;spacingRight=4;whiteSpace=wrap;overflow=hidden;rotatable=0;points=[[0,0.5],[1,0.5]];portConstraint=eastwest;" parent="u8VHcEahrcE8FP3tKRez-38" vertex="1">
          <mxGeometry y="26" width="110" height="26" as="geometry" />
        </mxCell>
        <mxCell id="u8VHcEahrcE8FP3tKRez-40" value="horasSemanais" style="text;html=1;strokeColor=none;fillColor=none;align=left;verticalAlign=top;spacingLeft=4;spacingRight=4;whiteSpace=wrap;overflow=hidden;rotatable=0;points=[[0,0.5],[1,0.5]];portConstraint=eastwest;" parent="u8VHcEahrcE8FP3tKRez-38" vertex="1">
          <mxGeometry y="52" width="110" height="26" as="geometry" />
        </mxCell>
        <mxCell id="u8VHcEahrcE8FP3tKRez-41" value="salarioHora" style="text;html=1;strokeColor=none;fillColor=none;align=left;verticalAlign=top;spacingLeft=4;spacingRight=4;whiteSpace=wrap;overflow=hidden;rotatable=0;points=[[0,0.5],[1,0.5]];portConstraint=eastwest;" parent="u8VHcEahrcE8FP3tKRez-38" vertex="1">
          <mxGeometry y="78" width="110" height="26" as="geometry" />
        </mxCell>
        <mxCell id="u8VHcEahrcE8FP3tKRez-42" value="CARRO" style="swimlane;html=1;fontStyle=0;childLayout=stackLayout;horizontal=1;startSize=26;fillColor=none;horizontalStack=0;resizeParent=1;resizeLast=0;collapsible=1;marginBottom=0;swimlaneFillColor=#ffffff;rounded=0;shadow=0;comic=0;labelBackgroundColor=none;strokeWidth=1;fontFamily=Verdana;fontSize=10;align=center;" parent="1" vertex="1">
          <mxGeometry x="-1567" y="1718" width="90" height="78" as="geometry" />
        </mxCell>
        <mxCell id="u8VHcEahrcE8FP3tKRez-43" value="matricula" style="text;html=1;strokeColor=none;fillColor=none;align=left;verticalAlign=top;spacingLeft=4;spacingRight=4;whiteSpace=wrap;overflow=hidden;rotatable=0;points=[[0,0.5],[1,0.5]];portConstraint=eastwest;" parent="u8VHcEahrcE8FP3tKRez-42" vertex="1">
          <mxGeometry y="26" width="90" height="26" as="geometry" />
        </mxCell>
        <mxCell id="u8VHcEahrcE8FP3tKRez-44" value="estadoViatura" style="text;html=1;strokeColor=none;fillColor=none;align=left;verticalAlign=top;spacingLeft=4;spacingRight=4;whiteSpace=wrap;overflow=hidden;rotatable=0;points=[[0,0.5],[1,0.5]];portConstraint=eastwest;" parent="u8VHcEahrcE8FP3tKRez-42" vertex="1">
          <mxGeometry y="52" width="90" height="26" as="geometry" />
        </mxCell>
        <mxCell id="u8VHcEahrcE8FP3tKRez-45" value="ALUGUER" style="swimlane;html=1;fontStyle=0;childLayout=stackLayout;horizontal=1;startSize=26;fillColor=none;horizontalStack=0;resizeParent=1;resizeLast=0;collapsible=1;marginBottom=0;swimlaneFillColor=#ffffff;rounded=0;shadow=0;comic=0;labelBackgroundColor=none;strokeWidth=1;fontFamily=Verdana;fontSize=10;align=center;" parent="1" vertex="1">
          <mxGeometry x="-1387" y="1398" width="160" height="156" as="geometry" />
        </mxCell>
        <mxCell id="u8VHcEahrcE8FP3tKRez-46" value="dataInicio&lt;br&gt;" style="text;html=1;strokeColor=none;fillColor=none;align=left;verticalAlign=top;spacingLeft=4;spacingRight=4;whiteSpace=wrap;overflow=hidden;rotatable=0;points=[[0,0.5],[1,0.5]];portConstraint=eastwest;" parent="u8VHcEahrcE8FP3tKRez-45" vertex="1">
          <mxGeometry y="26" width="160" height="26" as="geometry" />
        </mxCell>
        <mxCell id="u8VHcEahrcE8FP3tKRez-47" value="datafim" style="text;html=1;strokeColor=none;fillColor=none;align=left;verticalAlign=top;spacingLeft=4;spacingRight=4;whiteSpace=wrap;overflow=hidden;rotatable=0;points=[[0,0.5],[1,0.5]];portConstraint=eastwest;" parent="u8VHcEahrcE8FP3tKRez-45" vertex="1">
          <mxGeometry y="52" width="160" height="26" as="geometry" />
        </mxCell>
        <mxCell id="u8VHcEahrcE8FP3tKRez-48" value="horaInicio" style="text;html=1;strokeColor=none;fillColor=none;align=left;verticalAlign=top;spacingLeft=4;spacingRight=4;whiteSpace=wrap;overflow=hidden;rotatable=0;points=[[0,0.5],[1,0.5]];portConstraint=eastwest;" parent="u8VHcEahrcE8FP3tKRez-45" vertex="1">
          <mxGeometry y="78" width="160" height="26" as="geometry" />
        </mxCell>
        <mxCell id="u8VHcEahrcE8FP3tKRez-49" value="horaFim&lt;br&gt;" style="text;html=1;strokeColor=none;fillColor=none;align=left;verticalAlign=top;spacingLeft=4;spacingRight=4;whiteSpace=wrap;overflow=hidden;rotatable=0;points=[[0,0.5],[1,0.5]];portConstraint=eastwest;" parent="u8VHcEahrcE8FP3tKRez-45" vertex="1">
          <mxGeometry y="104" width="160" height="26" as="geometry" />
        </mxCell>
        <mxCell id="u8VHcEahrcE8FP3tKRez-50" value="localLevantamento" style="text;html=1;strokeColor=none;fillColor=none;align=left;verticalAlign=top;spacingLeft=4;spacingRight=4;whiteSpace=wrap;overflow=hidden;rotatable=0;points=[[0,0.5],[1,0.5]];portConstraint=eastwest;" parent="u8VHcEahrcE8FP3tKRez-45" vertex="1">
          <mxGeometry y="130" width="160" height="26" as="geometry" />
        </mxCell>
        <mxCell id="u8VHcEahrcE8FP3tKRez-56" value="MARCA" style="swimlane;html=1;fontStyle=0;childLayout=stackLayout;horizontal=1;startSize=26;fillColor=none;horizontalStack=0;resizeParent=1;resizeLast=0;collapsible=1;marginBottom=0;swimlaneFillColor=#ffffff;rounded=0;shadow=0;comic=0;labelBackgroundColor=none;strokeWidth=1;fontFamily=Verdana;fontSize=10;align=center;" parent="1" vertex="1">
          <mxGeometry x="-1317" y="1896" width="90" height="56" as="geometry" />
        </mxCell>
        <mxCell id="u8VHcEahrcE8FP3tKRez-57" value="nome" style="text;html=1;strokeColor=none;fillColor=none;align=left;verticalAlign=top;spacingLeft=4;spacingRight=4;whiteSpace=wrap;overflow=hidden;rotatable=0;points=[[0,0.5],[1,0.5]];portConstraint=eastwest;" parent="u8VHcEahrcE8FP3tKRez-56" vertex="1">
          <mxGeometry y="26" width="90" height="26" as="geometry" />
        </mxCell>
        <mxCell id="u8VHcEahrcE8FP3tKRez-58" value="MODELO" style="swimlane;html=1;fontStyle=0;childLayout=stackLayout;horizontal=1;startSize=26;fillColor=none;horizontalStack=0;resizeParent=1;resizeLast=0;collapsible=1;marginBottom=0;swimlaneFillColor=#ffffff;rounded=0;shadow=0;comic=0;labelBackgroundColor=none;strokeWidth=1;fontFamily=Verdana;fontSize=10;align=center;" parent="1" vertex="1">
          <mxGeometry x="-1547" y="1886" width="80" height="80" as="geometry" />
        </mxCell>
        <mxCell id="u8VHcEahrcE8FP3tKRez-59" value="nome" style="text;html=1;strokeColor=none;fillColor=none;align=left;verticalAlign=top;spacingLeft=4;spacingRight=4;whiteSpace=wrap;overflow=hidden;rotatable=0;points=[[0,0.5],[1,0.5]];portConstraint=eastwest;" parent="u8VHcEahrcE8FP3tKRez-58" vertex="1">
          <mxGeometry y="26" width="80" height="24" as="geometry" />
        </mxCell>
        <mxCell id="u8VHcEahrcE8FP3tKRez-60" value="categoria" style="text;html=1;strokeColor=none;fillColor=none;align=left;verticalAlign=top;spacingLeft=4;spacingRight=4;whiteSpace=wrap;overflow=hidden;rotatable=0;points=[[0,0.5],[1,0.5]];portConstraint=eastwest;" parent="u8VHcEahrcE8FP3tKRez-58" vertex="1">
          <mxGeometry y="50" width="80" height="26" as="geometry" />
        </mxCell>
        <mxCell id="u8VHcEahrcE8FP3tKRez-63" value="SEGURO" style="swimlane;html=1;fontStyle=0;childLayout=stackLayout;horizontal=1;startSize=26;fillColor=none;horizontalStack=0;resizeParent=1;resizeLast=0;collapsible=1;marginBottom=0;swimlaneFillColor=#ffffff;rounded=0;shadow=0;comic=0;labelBackgroundColor=none;strokeWidth=1;fontFamily=Verdana;fontSize=10;align=center;" parent="1" vertex="1">
          <mxGeometry x="-1432" y="1162" width="100" height="120" as="geometry" />
        </mxCell>
        <mxCell id="u8VHcEahrcE8FP3tKRez-64" value="tipo" style="text;html=1;strokeColor=none;fillColor=none;align=left;verticalAlign=top;spacingLeft=4;spacingRight=4;whiteSpace=wrap;overflow=hidden;rotatable=0;points=[[0,0.5],[1,0.5]];portConstraint=eastwest;" parent="u8VHcEahrcE8FP3tKRez-63" vertex="1">
          <mxGeometry y="26" width="100" height="26" as="geometry" />
        </mxCell>
        <mxCell id="u8VHcEahrcE8FP3tKRez-65" value="descrição&lt;br&gt;" style="text;html=1;strokeColor=none;fillColor=none;align=left;verticalAlign=top;spacingLeft=4;spacingRight=4;whiteSpace=wrap;overflow=hidden;rotatable=0;points=[[0,0.5],[1,0.5]];portConstraint=eastwest;" parent="u8VHcEahrcE8FP3tKRez-63" vertex="1">
          <mxGeometry y="52" width="100" height="26" as="geometry" />
        </mxCell>
        <mxCell id="u8VHcEahrcE8FP3tKRez-66" value="preço" style="text;html=1;strokeColor=none;fillColor=none;align=left;verticalAlign=top;spacingLeft=4;spacingRight=4;whiteSpace=wrap;overflow=hidden;rotatable=0;points=[[0,0.5],[1,0.5]];portConstraint=eastwest;" parent="u8VHcEahrcE8FP3tKRez-63" vertex="1">
          <mxGeometry y="78" width="100" height="26" as="geometry" />
        </mxCell>
        <mxCell id="u8VHcEahrcE8FP3tKRez-67" value="PLANO DE ALUGUER" style="swimlane;html=1;fontStyle=0;childLayout=stackLayout;horizontal=1;startSize=26;fillColor=none;horizontalStack=0;resizeParent=1;resizeLast=0;collapsible=1;marginBottom=0;swimlaneFillColor=#ffffff;rounded=0;shadow=0;comic=0;labelBackgroundColor=none;strokeWidth=1;fontFamily=Verdana;fontSize=10;align=center;" parent="1" vertex="1">
          <mxGeometry x="-1337" y="1692" width="120" height="110" as="geometry" />
        </mxCell>
        <mxCell id="1ph47kxzpxHqcFosfZ3S-9" value="nome" style="text;html=1;strokeColor=none;fillColor=none;align=left;verticalAlign=top;spacingLeft=4;spacingRight=4;whiteSpace=wrap;overflow=hidden;rotatable=0;points=[[0,0.5],[1,0.5]];portConstraint=eastwest;" parent="u8VHcEahrcE8FP3tKRez-67" vertex="1">
          <mxGeometry y="26" width="120" height="26" as="geometry" />
        </mxCell>
        <mxCell id="1ph47kxzpxHqcFosfZ3S-10" value="descrição" style="text;html=1;strokeColor=none;fillColor=none;align=left;verticalAlign=top;spacingLeft=4;spacingRight=4;whiteSpace=wrap;overflow=hidden;rotatable=0;points=[[0,0.5],[1,0.5]];portConstraint=eastwest;" parent="u8VHcEahrcE8FP3tKRez-67" vertex="1">
          <mxGeometry y="52" width="120" height="26" as="geometry" />
        </mxCell>
        <mxCell id="1ph47kxzpxHqcFosfZ3S-11" value="preçoDiária" style="text;html=1;strokeColor=none;fillColor=none;align=left;verticalAlign=top;spacingLeft=4;spacingRight=4;whiteSpace=wrap;overflow=hidden;rotatable=0;points=[[0,0.5],[1,0.5]];portConstraint=eastwest;" parent="u8VHcEahrcE8FP3tKRez-67" vertex="1">
          <mxGeometry y="78" width="120" height="26" as="geometry" />
        </mxCell>
        <mxCell id="1ph47kxzpxHqcFosfZ3S-4" value="" style="endArrow=block;endSize=16;endFill=0;html=1;rounded=0;exitX=0.5;exitY=0;exitDx=0;exitDy=0;entryX=0.498;entryY=1.102;entryDx=0;entryDy=0;entryPerimeter=0;" parent="1" source="u8VHcEahrcE8FP3tKRez-38" target="u8VHcEahrcE8FP3tKRez-32" edge="1">
          <mxGeometry width="160" relative="1" as="geometry">
            <mxPoint x="-987" y="1602" as="sourcePoint" />
            <mxPoint x="-827" y="1602" as="targetPoint" />
          </mxGeometry>
        </mxCell>
        <mxCell id="1ph47kxzpxHqcFosfZ3S-5" value="" style="endArrow=block;endSize=16;endFill=0;html=1;rounded=0;entryX=0.5;entryY=0;entryDx=0;entryDy=0;strokeColor=default;jumpStyle=none;shadow=0;" parent="1" edge="1">
          <mxGeometry width="160" relative="1" as="geometry">
            <mxPoint x="-967" y="1262" as="sourcePoint" />
            <mxPoint x="-967.29" y="1382" as="targetPoint" />
          </mxGeometry>
        </mxCell>
        <mxCell id="1ph47kxzpxHqcFosfZ3S-8" value="" style="endArrow=none;html=1;edgeStyle=orthogonalEdgeStyle;rounded=0;entryX=0;entryY=0.5;entryDx=0;entryDy=0;exitX=1;exitY=0.5;exitDx=0;exitDy=0;" parent="1" target="u8VHcEahrcE8FP3tKRez-40" edge="1">
          <mxGeometry relative="1" as="geometry">
            <mxPoint x="-1227" y="1500.03" as="sourcePoint" />
            <mxPoint x="-1046.04" y="1727.542" as="targetPoint" />
            <Array as="points">
              <mxPoint x="-1097" y="1500" />
              <mxPoint x="-1097" y="1727" />
            </Array>
          </mxGeometry>
        </mxCell>
        <mxCell id="1ph47kxzpxHqcFosfZ3S-16" value="" style="endArrow=none;html=1;edgeStyle=orthogonalEdgeStyle;rounded=0;entryX=0.805;entryY=-0.004;entryDx=0;entryDy=0;entryPerimeter=0;" parent="1" target="u8VHcEahrcE8FP3tKRez-45" edge="1">
          <mxGeometry relative="1" as="geometry">
            <mxPoint x="-1023" y="1222" as="sourcePoint" />
            <mxPoint x="-1213" y="1390" as="targetPoint" />
            <Array as="points">
              <mxPoint x="-1023" y="1222" />
              <mxPoint x="-1257" y="1222" />
              <mxPoint x="-1257" y="1397" />
            </Array>
          </mxGeometry>
        </mxCell>
        <mxCell id="iwyS8x97kc3tYDYb35Mc-1" value="1" style="text;html=1;strokeColor=none;fillColor=none;align=center;verticalAlign=middle;whiteSpace=wrap;rounded=0;" parent="1" vertex="1">
          <mxGeometry x="-1067" y="1222" width="60" height="30" as="geometry" />
        </mxCell>
        <mxCell id="iwyS8x97kc3tYDYb35Mc-3" value="1..*" style="text;html=1;strokeColor=none;fillColor=none;align=center;verticalAlign=middle;whiteSpace=wrap;rounded=0;" parent="1" vertex="1">
          <mxGeometry x="-1272" y="1368" width="60" height="30" as="geometry" />
        </mxCell>
        <mxCell id="iwyS8x97kc3tYDYb35Mc-13" value="&lt;font style=&quot;font-size: 15px;&quot;&gt;*&lt;/font&gt;" style="text;html=1;strokeColor=none;fillColor=none;align=center;verticalAlign=middle;whiteSpace=wrap;rounded=0;" parent="1" vertex="1">
          <mxGeometry x="-1550" y="1530" width="50" height="28" as="geometry" />
        </mxCell>
        <mxCell id="iwyS8x97kc3tYDYb35Mc-25" value="" style="endArrow=none;html=1;edgeStyle=orthogonalEdgeStyle;rounded=0;entryX=0.5;entryY=0;entryDx=0;entryDy=0;" parent="1" edge="1" target="u8VHcEahrcE8FP3tKRez-67">
          <mxGeometry relative="1" as="geometry">
            <mxPoint x="-1277" y="1554" as="sourcePoint" />
            <mxPoint x="-1277" y="1662" as="targetPoint" />
            <Array as="points" />
          </mxGeometry>
        </mxCell>
        <mxCell id="iwyS8x97kc3tYDYb35Mc-31" value="&lt;font style=&quot;font-size: 15px;&quot;&gt;*&lt;/font&gt;" style="text;html=1;strokeColor=none;fillColor=none;align=center;verticalAlign=middle;whiteSpace=wrap;rounded=0;" parent="1" vertex="1">
          <mxGeometry x="-1367" y="1370" width="50" height="28" as="geometry" />
        </mxCell>
        <mxCell id="iwyS8x97kc3tYDYb35Mc-36" value="1" style="text;html=1;strokeColor=none;fillColor=none;align=center;verticalAlign=middle;whiteSpace=wrap;rounded=0;" parent="1" vertex="1">
          <mxGeometry x="-1067" y="1730" width="60" height="30" as="geometry" />
        </mxCell>
        <mxCell id="iwyS8x97kc3tYDYb35Mc-38" value="&lt;font style=&quot;font-size: 15px;&quot;&gt;*&lt;/font&gt;" style="text;html=1;strokeColor=none;fillColor=none;align=center;verticalAlign=middle;whiteSpace=wrap;rounded=0;" parent="1" vertex="1">
          <mxGeometry x="-1237" y="1502" width="50" height="28" as="geometry" />
        </mxCell>
        <mxCell id="iwyS8x97kc3tYDYb35Mc-39" value="" style="endArrow=none;dashed=1;html=1;rounded=0;" parent="1" edge="1">
          <mxGeometry width="50" height="50" relative="1" as="geometry">
            <mxPoint x="-1137" y="1602" as="sourcePoint" />
            <mxPoint x="-1097" y="1602" as="targetPoint" />
          </mxGeometry>
        </mxCell>
        <mxCell id="iwyS8x97kc3tYDYb35Mc-40" value="DEVOLUÇÃO" style="swimlane;html=1;fontStyle=0;childLayout=stackLayout;horizontal=1;startSize=26;fillColor=none;horizontalStack=0;resizeParent=1;resizeLast=0;collapsible=1;marginBottom=0;swimlaneFillColor=#ffffff;rounded=0;shadow=0;comic=0;labelBackgroundColor=none;strokeWidth=1;fontFamily=Verdana;fontSize=10;align=center;" parent="1" vertex="1">
          <mxGeometry x="-1227" y="1574" width="90" height="52" as="geometry" />
        </mxCell>
        <mxCell id="iwyS8x97kc3tYDYb35Mc-46" value="estadoVeiculo" style="text;html=1;strokeColor=none;fillColor=none;align=left;verticalAlign=top;spacingLeft=4;spacingRight=4;whiteSpace=wrap;overflow=hidden;rotatable=0;points=[[0,0.5],[1,0.5]];portConstraint=eastwest;" parent="iwyS8x97kc3tYDYb35Mc-40" vertex="1">
          <mxGeometry y="26" width="90" height="26" as="geometry" />
        </mxCell>
        <mxCell id="iwyS8x97kc3tYDYb35Mc-50" value="" style="endArrow=none;dashed=1;html=1;rounded=0;" parent="1" edge="1">
          <mxGeometry width="50" height="50" relative="1" as="geometry">
            <mxPoint x="-1142" y="1492" as="sourcePoint" />
            <mxPoint x="-1142.3400000000001" y="1450" as="targetPoint" />
          </mxGeometry>
        </mxCell>
        <mxCell id="iwyS8x97kc3tYDYb35Mc-51" value="ENTREGA" style="swimlane;html=1;fontStyle=0;childLayout=stackLayout;horizontal=1;startSize=26;fillColor=none;horizontalStack=0;resizeParent=1;resizeLast=0;collapsible=1;marginBottom=0;swimlaneFillColor=#ffffff;rounded=0;shadow=0;comic=0;labelBackgroundColor=none;strokeWidth=1;fontFamily=Verdana;fontSize=10;align=center;" parent="1" vertex="1">
          <mxGeometry x="-1187" y="1398" width="90" height="52" as="geometry" />
        </mxCell>
        <mxCell id="iwyS8x97kc3tYDYb35Mc-52" value="estadoVeiculo" style="text;html=1;strokeColor=none;fillColor=none;align=left;verticalAlign=top;spacingLeft=4;spacingRight=4;whiteSpace=wrap;overflow=hidden;rotatable=0;points=[[0,0.5],[1,0.5]];portConstraint=eastwest;" parent="iwyS8x97kc3tYDYb35Mc-51" vertex="1">
          <mxGeometry y="26" width="90" height="26" as="geometry" />
        </mxCell>
        <mxCell id="iwyS8x97kc3tYDYb35Mc-53" value="" style="endArrow=none;html=1;edgeStyle=orthogonalEdgeStyle;rounded=0;exitX=1;exitY=0.5;exitDx=0;exitDy=0;entryX=-0.006;entryY=0.154;entryDx=0;entryDy=0;entryPerimeter=0;" parent="1" source="u8VHcEahrcE8FP3tKRez-48" target="u8VHcEahrcE8FP3tKRez-39" edge="1">
          <mxGeometry relative="1" as="geometry">
            <mxPoint x="-1177" y="1492" as="sourcePoint" />
            <mxPoint x="-1047.0300000000002" y="1692.01" as="targetPoint" />
            <Array as="points">
              <mxPoint x="-1227" y="1492" />
              <mxPoint x="-1087" y="1492" />
              <mxPoint x="-1087" y="1692" />
            </Array>
          </mxGeometry>
        </mxCell>
        <mxCell id="iwyS8x97kc3tYDYb35Mc-56" value="" style="endArrow=none;endFill=0;endSize=24;html=1;rounded=0;entryX=-0.003;entryY=0.081;entryDx=0;entryDy=0;entryPerimeter=0;exitX=0.99;exitY=0.237;exitDx=0;exitDy=0;exitPerimeter=0;" parent="1" edge="1" source="iwyS8x97kc3tYDYb35Mc-80">
          <mxGeometry width="160" relative="1" as="geometry">
            <mxPoint x="-1507.6399999999999" y="1530.7440000000001" as="sourcePoint" />
            <mxPoint x="-1387.0000000000005" y="1529.996" as="targetPoint" />
          </mxGeometry>
        </mxCell>
        <mxCell id="iwyS8x97kc3tYDYb35Mc-70" value="" style="endArrow=none;html=1;edgeStyle=orthogonalEdgeStyle;rounded=0;exitX=0.75;exitY=1;exitDx=0;exitDy=0;" parent="1" source="u8VHcEahrcE8FP3tKRez-63" edge="1">
          <mxGeometry relative="1" as="geometry">
            <mxPoint x="-1357" y="1336" as="sourcePoint" />
            <mxPoint x="-1357" y="1398" as="targetPoint" />
            <Array as="points" />
          </mxGeometry>
        </mxCell>
        <mxCell id="iwyS8x97kc3tYDYb35Mc-71" value="&lt;font style=&quot;font-size: 15px;&quot;&gt;1..*&lt;/font&gt;" style="text;html=1;strokeColor=none;fillColor=none;align=center;verticalAlign=middle;whiteSpace=wrap;rounded=0;" parent="1" vertex="1">
          <mxGeometry x="-1367" y="1282" width="50" height="28" as="geometry" />
        </mxCell>
        <mxCell id="iwyS8x97kc3tYDYb35Mc-73" value="SEGURADORA" style="swimlane;html=1;fontStyle=0;childLayout=stackLayout;horizontal=1;startSize=20;fillColor=none;horizontalStack=0;resizeParent=1;resizeLast=0;collapsible=1;marginBottom=0;swimlaneFillColor=#ffffff;rounded=0;shadow=0;comic=0;labelBackgroundColor=none;strokeWidth=1;fontFamily=Verdana;fontSize=10;align=center;" parent="1" vertex="1">
          <mxGeometry x="-1637" y="1310" width="105" height="124" as="geometry" />
        </mxCell>
        <mxCell id="iwyS8x97kc3tYDYb35Mc-74" value="nome" style="text;html=1;strokeColor=none;fillColor=none;align=left;verticalAlign=top;spacingLeft=4;spacingRight=4;whiteSpace=wrap;overflow=hidden;rotatable=0;points=[[0,0.5],[1,0.5]];portConstraint=eastwest;" parent="iwyS8x97kc3tYDYb35Mc-73" vertex="1">
          <mxGeometry y="20" width="105" height="26" as="geometry" />
        </mxCell>
        <mxCell id="iwyS8x97kc3tYDYb35Mc-75" value="morada" style="text;html=1;strokeColor=none;fillColor=none;align=left;verticalAlign=top;spacingLeft=4;spacingRight=4;whiteSpace=wrap;overflow=hidden;rotatable=0;points=[[0,0.5],[1,0.5]];portConstraint=eastwest;" parent="iwyS8x97kc3tYDYb35Mc-73" vertex="1">
          <mxGeometry y="46" width="105" height="26" as="geometry" />
        </mxCell>
        <mxCell id="iwyS8x97kc3tYDYb35Mc-76" value="telefone" style="text;html=1;strokeColor=none;fillColor=none;align=left;verticalAlign=top;spacingLeft=4;spacingRight=4;whiteSpace=wrap;overflow=hidden;rotatable=0;points=[[0,0.5],[1,0.5]];portConstraint=eastwest;" parent="iwyS8x97kc3tYDYb35Mc-73" vertex="1">
          <mxGeometry y="72" width="105" height="26" as="geometry" />
        </mxCell>
        <mxCell id="iwyS8x97kc3tYDYb35Mc-77" value="email" style="text;html=1;strokeColor=none;fillColor=none;align=left;verticalAlign=top;spacingLeft=4;spacingRight=4;whiteSpace=wrap;overflow=hidden;rotatable=0;points=[[0,0.5],[1,0.5]];portConstraint=eastwest;" parent="iwyS8x97kc3tYDYb35Mc-73" vertex="1">
          <mxGeometry y="98" width="105" height="26" as="geometry" />
        </mxCell>
        <mxCell id="iwyS8x97kc3tYDYb35Mc-78" value="EXTRA" style="swimlane;html=1;fontStyle=0;childLayout=stackLayout;horizontal=1;startSize=26;fillColor=none;horizontalStack=0;resizeParent=1;resizeLast=0;collapsible=1;marginBottom=0;swimlaneFillColor=#ffffff;rounded=0;shadow=0;comic=0;labelBackgroundColor=none;strokeWidth=1;fontFamily=Verdana;fontSize=10;align=center;" parent="1" vertex="1">
          <mxGeometry x="-1628.25" y="1472" width="87.5" height="111" as="geometry" />
        </mxCell>
        <mxCell id="iwyS8x97kc3tYDYb35Mc-79" value="nome" style="text;html=1;strokeColor=none;fillColor=none;align=left;verticalAlign=top;spacingLeft=4;spacingRight=4;whiteSpace=wrap;overflow=hidden;rotatable=0;points=[[0,0.5],[1,0.5]];portConstraint=eastwest;" parent="iwyS8x97kc3tYDYb35Mc-78" vertex="1">
          <mxGeometry y="26" width="87.5" height="26" as="geometry" />
        </mxCell>
        <mxCell id="iwyS8x97kc3tYDYb35Mc-80" value="descrição" style="text;html=1;strokeColor=none;fillColor=none;align=left;verticalAlign=top;spacingLeft=4;spacingRight=4;whiteSpace=wrap;overflow=hidden;rotatable=0;points=[[0,0.5],[1,0.5]];portConstraint=eastwest;" parent="iwyS8x97kc3tYDYb35Mc-78" vertex="1">
          <mxGeometry y="52" width="87.5" height="26" as="geometry" />
        </mxCell>
        <mxCell id="iwyS8x97kc3tYDYb35Mc-81" value="valor" style="text;html=1;strokeColor=none;fillColor=none;align=left;verticalAlign=top;spacingLeft=4;spacingRight=4;whiteSpace=wrap;overflow=hidden;rotatable=0;points=[[0,0.5],[1,0.5]];portConstraint=eastwest;" parent="iwyS8x97kc3tYDYb35Mc-78" vertex="1">
          <mxGeometry y="78" width="87.5" height="26" as="geometry" />
        </mxCell>
        <mxCell id="iwyS8x97kc3tYDYb35Mc-84" value="" style="endArrow=none;html=1;edgeStyle=orthogonalEdgeStyle;rounded=0;exitX=0.166;exitY=0.035;exitDx=0;exitDy=0;exitPerimeter=0;entryX=0.374;entryY=-0.006;entryDx=0;entryDy=0;entryPerimeter=0;" parent="1" edge="1">
          <mxGeometry relative="1" as="geometry">
            <mxPoint x="-1517.04" y="1797.05" as="sourcePoint" />
            <mxPoint x="-1517.08" y="1883.5200000000004" as="targetPoint" />
            <Array as="points" />
          </mxGeometry>
        </mxCell>
        <mxCell id="iwyS8x97kc3tYDYb35Mc-86" value="" style="line;strokeWidth=1;fillColor=none;align=left;verticalAlign=middle;spacingTop=-1;spacingLeft=3;spacingRight=3;rotatable=0;labelPosition=right;points=[];portConstraint=eastwest;strokeColor=inherit;" parent="1" vertex="1">
          <mxGeometry x="-1467" y="1922" width="150" height="8" as="geometry" />
        </mxCell>
        <mxCell id="iwyS8x97kc3tYDYb35Mc-87" value="1" style="text;html=1;strokeColor=none;fillColor=none;align=center;verticalAlign=middle;whiteSpace=wrap;rounded=0;" parent="1" vertex="1">
          <mxGeometry x="-1367" y="1926" width="60" height="30" as="geometry" />
        </mxCell>
        <mxCell id="iwyS8x97kc3tYDYb35Mc-88" value="1..*" style="text;html=1;strokeColor=none;fillColor=none;align=center;verticalAlign=middle;whiteSpace=wrap;rounded=0;" parent="1" vertex="1">
          <mxGeometry x="-1472" y="1930" width="40" height="22" as="geometry" />
        </mxCell>
        <mxCell id="iwyS8x97kc3tYDYb35Mc-89" value="1" style="text;html=1;strokeColor=none;fillColor=none;align=center;verticalAlign=middle;whiteSpace=wrap;rounded=0;" parent="1" vertex="1">
          <mxGeometry x="-1540.75" y="1688" width="60" height="30" as="geometry" />
        </mxCell>
        <mxCell id="iwyS8x97kc3tYDYb35Mc-90" value="1" style="text;html=1;strokeColor=none;fillColor=none;align=center;verticalAlign=middle;whiteSpace=wrap;rounded=0;" parent="1" vertex="1">
          <mxGeometry x="-1509" y="1856" width="20" height="30" as="geometry" />
        </mxCell>
        <mxCell id="iwyS8x97kc3tYDYb35Mc-92" value="1" style="text;html=1;strokeColor=none;fillColor=none;align=center;verticalAlign=middle;whiteSpace=wrap;rounded=0;" parent="1" vertex="1">
          <mxGeometry x="-1067" y="1662" width="60" height="30" as="geometry" />
        </mxCell>
        <mxCell id="iwyS8x97kc3tYDYb35Mc-93" value="&lt;font style=&quot;font-size: 15px;&quot;&gt;*&lt;/font&gt;" style="text;html=1;strokeColor=none;fillColor=none;align=center;verticalAlign=middle;whiteSpace=wrap;rounded=0;" parent="1" vertex="1">
          <mxGeometry x="-1237" y="1472" width="50" height="28" as="geometry" />
        </mxCell>
        <mxCell id="iwyS8x97kc3tYDYb35Mc-94" value="&lt;font style=&quot;font-size: 15px;&quot;&gt;*&lt;/font&gt;" style="text;html=1;strokeColor=none;fillColor=none;align=center;verticalAlign=middle;whiteSpace=wrap;rounded=0;" parent="1" vertex="1">
          <mxGeometry x="-1317" y="1554" width="50" height="28" as="geometry" />
        </mxCell>
        <mxCell id="iwyS8x97kc3tYDYb35Mc-98" value="1" style="text;html=1;strokeColor=none;fillColor=none;align=center;verticalAlign=middle;whiteSpace=wrap;rounded=0;" parent="1" vertex="1">
          <mxGeometry x="-1387" y="1554" width="60" height="30" as="geometry" />
        </mxCell>
        <mxCell id="iwyS8x97kc3tYDYb35Mc-99" value="" style="endArrow=none;html=1;edgeStyle=orthogonalEdgeStyle;rounded=0;exitX=-0.01;exitY=0.773;exitDx=0;exitDy=0;exitPerimeter=0;" parent="1" source="u8VHcEahrcE8FP3tKRez-65" edge="1">
          <mxGeometry relative="1" as="geometry">
            <mxPoint x="-1587.5300000000002" y="1194" as="sourcePoint" />
            <mxPoint x="-1587.5300000000002" y="1310" as="targetPoint" />
            <Array as="points" />
          </mxGeometry>
        </mxCell>
        <mxCell id="iwyS8x97kc3tYDYb35Mc-100" value="&lt;font style=&quot;font-size: 15px;&quot;&gt;1..*&lt;/font&gt;" style="text;html=1;strokeColor=none;fillColor=none;align=center;verticalAlign=middle;whiteSpace=wrap;rounded=0;" parent="1" vertex="1">
          <mxGeometry x="-1517" y="1232" width="50" height="28" as="geometry" />
        </mxCell>
        <mxCell id="iwyS8x97kc3tYDYb35Mc-101" value="&lt;font style=&quot;font-size: 15px;&quot;&gt;1..*&lt;/font&gt;" style="text;html=1;strokeColor=none;fillColor=none;align=center;verticalAlign=middle;whiteSpace=wrap;rounded=0;" parent="1" vertex="1">
          <mxGeometry x="-1597" y="1282" width="50" height="28" as="geometry" />
        </mxCell>
        <mxCell id="5IcPBQkvsi3HylHIgRuO-3" value="" style="endArrow=none;dashed=1;html=1;dashPattern=1 3;strokeWidth=2;rounded=0;entryX=0.647;entryY=0.991;entryDx=0;entryDy=0;entryPerimeter=0;exitX=0;exitY=0;exitDx=43.5;exitDy=0;exitPerimeter=0;" parent="1" source="5IcPBQkvsi3HylHIgRuO-8" edge="1">
          <mxGeometry width="50" height="50" relative="1" as="geometry">
            <mxPoint x="-1165.2" y="1656.63" as="sourcePoint" />
            <mxPoint x="-1165.5000000000002" y="1626" as="targetPoint" />
          </mxGeometry>
        </mxCell>
        <mxCell id="5IcPBQkvsi3HylHIgRuO-9" value="&lt;div style=&quot;&quot;&gt;&lt;span style=&quot;font-size: 7px;&quot;&gt;&lt;b&gt;Um modelo&lt;/b&gt;&lt;/span&gt;&lt;b style=&quot;font-size: 7px; background-color: initial;&quot;&gt;&amp;nbsp;só pode estar associado a um único plano de aluguer por vez, pois o plano de aluguer é definido principalmente pela categoria do modelo.&amp;nbsp;&lt;/b&gt;&lt;/div&gt;" style="shape=note;whiteSpace=wrap;html=1;backgroundOutline=1;darkOpacity=0.05;size=13;verticalAlign=bottom;labelBackgroundColor=none;labelBorderColor=none;align=left;gradientColor=none;fillColor=default;" parent="1" vertex="1">
          <mxGeometry x="-1345.5" y="1816" width="155.5" height="64" as="geometry" />
        </mxCell>
        <mxCell id="5IcPBQkvsi3HylHIgRuO-10" value="" style="endArrow=none;dashed=1;html=1;dashPattern=1 3;strokeWidth=2;rounded=0;" parent="1" edge="1">
          <mxGeometry width="50" height="50" relative="1" as="geometry">
            <mxPoint x="-1400" y="1850" as="sourcePoint" />
            <mxPoint x="-1345.5" y="1850" as="targetPoint" />
          </mxGeometry>
        </mxCell>
        <mxCell id="5IcPBQkvsi3HylHIgRuO-14" value="Aluga" style="text;html=1;strokeColor=none;fillColor=default;align=center;verticalAlign=middle;whiteSpace=wrap;rounded=0;" parent="1" vertex="1">
          <mxGeometry x="-1164.5" y="1212" width="45" height="20" as="geometry" />
        </mxCell>
        <mxCell id="5IcPBQkvsi3HylHIgRuO-22" value="1..*" style="text;html=1;strokeColor=none;fillColor=none;align=center;verticalAlign=middle;whiteSpace=wrap;rounded=0;" parent="1" vertex="1">
          <mxGeometry x="-1507" y="1796" width="20" height="30" as="geometry" />
        </mxCell>
        <mxCell id="H295SCiOlWPUxpdB2qb6-1" value="Quantidade" style="swimlane;html=1;fontStyle=0;childLayout=stackLayout;horizontal=1;startSize=26;fillColor=none;horizontalStack=0;resizeParent=1;resizeLast=0;collapsible=1;marginBottom=0;swimlaneFillColor=#ffffff;rounded=0;shadow=0;comic=0;labelBackgroundColor=none;strokeWidth=1;fontFamily=Verdana;fontSize=10;align=center;" vertex="1" parent="1">
          <mxGeometry x="-1509" y="1440" width="77" height="52" as="geometry" />
        </mxCell>
        <mxCell id="H295SCiOlWPUxpdB2qb6-2" value="qtd" style="text;html=1;strokeColor=none;fillColor=none;align=left;verticalAlign=top;spacingLeft=4;spacingRight=4;whiteSpace=wrap;overflow=hidden;rotatable=0;points=[[0,0.5],[1,0.5]];portConstraint=eastwest;" vertex="1" parent="H295SCiOlWPUxpdB2qb6-1">
          <mxGeometry y="26" width="77" height="26" as="geometry" />
        </mxCell>
        <mxCell id="H295SCiOlWPUxpdB2qb6-4" value="" style="endArrow=none;dashed=1;html=1;rounded=0;entryX=0.501;entryY=1.043;entryDx=0;entryDy=0;entryPerimeter=0;" edge="1" parent="1" target="H295SCiOlWPUxpdB2qb6-2">
          <mxGeometry width="50" height="50" relative="1" as="geometry">
            <mxPoint x="-1470.33" y="1520" as="sourcePoint" />
            <mxPoint x="-1470" y="1500" as="targetPoint" />
            <Array as="points">
              <mxPoint x="-1470.33" y="1530" />
            </Array>
          </mxGeometry>
        </mxCell>
        <mxCell id="H295SCiOlWPUxpdB2qb6-5" value="&lt;font style=&quot;font-size: 15px;&quot;&gt;*&lt;/font&gt;" style="text;html=1;strokeColor=none;fillColor=none;align=center;verticalAlign=middle;whiteSpace=wrap;rounded=0;" vertex="1" parent="1">
          <mxGeometry x="-1429.5" y="1530" width="50" height="28" as="geometry" />
        </mxCell>
        <mxCell id="H295SCiOlWPUxpdB2qb6-7" value="" style="endArrow=none;endFill=0;endSize=24;html=1;rounded=0;" edge="1" parent="1">
          <mxGeometry width="160" relative="1" as="geometry">
            <mxPoint x="-1530" y="1718" as="sourcePoint" />
            <mxPoint x="-1530" y="1630" as="targetPoint" />
          </mxGeometry>
        </mxCell>
        <mxCell id="H295SCiOlWPUxpdB2qb6-8" value="" style="endArrow=none;endFill=0;endSize=24;html=1;rounded=0;exitX=0.99;exitY=0.237;exitDx=0;exitDy=0;exitPerimeter=0;" edge="1" parent="1">
          <mxGeometry width="160" relative="1" as="geometry">
            <mxPoint x="-1529.5" y="1630" as="sourcePoint" />
            <mxPoint x="-1370" y="1630" as="targetPoint" />
          </mxGeometry>
        </mxCell>
        <mxCell id="H295SCiOlWPUxpdB2qb6-9" value="" style="endArrow=none;endFill=0;endSize=24;html=1;rounded=0;entryX=0.103;entryY=1.019;entryDx=0;entryDy=0;entryPerimeter=0;" edge="1" parent="1" target="u8VHcEahrcE8FP3tKRez-50">
          <mxGeometry width="160" relative="1" as="geometry">
            <mxPoint x="-1370" y="1630" as="sourcePoint" />
            <mxPoint x="-1317.0000000000005" y="1585.996" as="targetPoint" />
          </mxGeometry>
        </mxCell>
        <mxCell id="H295SCiOlWPUxpdB2qb6-10" value="" style="endArrow=none;endFill=0;endSize=24;html=1;rounded=0;exitX=0.99;exitY=0.237;exitDx=0;exitDy=0;exitPerimeter=0;" edge="1" parent="1">
          <mxGeometry width="160" relative="1" as="geometry">
            <mxPoint x="-1467" y="1910" as="sourcePoint" />
            <mxPoint x="-1400" y="1910" as="targetPoint" />
          </mxGeometry>
        </mxCell>
        <mxCell id="H295SCiOlWPUxpdB2qb6-11" value="" style="endArrow=none;endFill=0;endSize=24;html=1;rounded=0;" edge="1" parent="1">
          <mxGeometry width="160" relative="1" as="geometry">
            <mxPoint x="-1400" y="1910" as="sourcePoint" />
            <mxPoint x="-1400" y="1760" as="targetPoint" />
          </mxGeometry>
        </mxCell>
        <mxCell id="H295SCiOlWPUxpdB2qb6-12" value="" style="endArrow=none;endFill=0;endSize=24;html=1;rounded=0;" edge="1" parent="1">
          <mxGeometry width="160" relative="1" as="geometry">
            <mxPoint x="-1400" y="1760" as="sourcePoint" />
            <mxPoint x="-1337" y="1760" as="targetPoint" />
          </mxGeometry>
        </mxCell>
        <mxCell id="H295SCiOlWPUxpdB2qb6-13" value="1..*" style="text;html=1;strokeColor=none;fillColor=none;align=center;verticalAlign=middle;whiteSpace=wrap;rounded=0;" vertex="1" parent="1">
          <mxGeometry x="-1469.5" y="1886" width="40" height="22" as="geometry" />
        </mxCell>
        <mxCell id="H295SCiOlWPUxpdB2qb6-14" value="1..*" style="text;html=1;strokeColor=none;fillColor=none;align=center;verticalAlign=middle;whiteSpace=wrap;rounded=0;" vertex="1" parent="1">
          <mxGeometry x="-1377" y="1738" width="40" height="22" as="geometry" />
        </mxCell>
        <mxCell id="H295SCiOlWPUxpdB2qb6-18" value="&lt;font style=&quot;font-size: 12px;&quot;&gt;1&lt;/font&gt;" style="text;html=1;strokeColor=none;fillColor=none;align=center;verticalAlign=middle;whiteSpace=wrap;rounded=0;" vertex="1" parent="1">
          <mxGeometry x="-1314" y="1662" width="47" height="32" as="geometry" />
        </mxCell>
      </root>
    </mxGraphModel>
  </diagram>
</mxfile>
